<svg xmlns="http://www.w3.org/2000/svg" viewBox="0 0 1370 342"><linearGradient id="a" gradientUnits="userSpaceOnUse" x1="9.513" y1="190" x2="468.091" y2="190"><stop offset="0" stop-color="#3c3c3b"/><stop offset=".675" stop-color="#3c3c3b" stop-opacity=".114"/><stop offset=".761" stop-color="#3c3c3b" stop-opacity="0"/></linearGradient><path d="M466.59 170.02c-6.24-40.83-31.31-75.46-66.06-94.77-18.84-10.46-40.53-16.43-63.61-16.43-38.84 0-73.74 16.89-97.76 43.71a132.018 132.018 0 00-34.14-27.28c-18.84-10.47-40.52-16.43-63.61-16.43-23.38 0-45.33 6.12-64.34 16.84v-.41c-34.75 19.31-59.82 53.94-66.06 94.77a131.77 131.77 0 00-1.5 19.39v131.31c20.26-2.22 38.12-12.4 50.39-27.36.1-.12.18-.24.28-.36 10.56-13.04 16.9-29.64 16.9-47.73v-53.06c-.02-.72 0-1.43 0-2.15 0-35.16 29.18-63.72 64.34-63.72 34.42 0 63.16 27.04 64.32 61.17.03.74 0 1.75 0 2.49 0 72.45 58.73 131.18 131.18 131.18 23.08 0 44.76-5.97 63.61-16.43a131.15 131.15 0 0017.18-11.39c30.49-23.86 50.15-60.93 50.39-102.59v-1.36c-.04-6.59-.54-13.06-1.51-19.39zm-66.06 21c-1.17 34.13-29.19 61.45-63.61 61.45-35.16 0-63.66-28.5-63.66-63.66s28.5-63.66 63.66-63.66c34.42 0 62.44 27.32 63.61 61.45l.06 2.21-.06 2.21z" fill="url(#a)"/><path d="M466.59 170.02c-6.24-40.83-31.31-75.46-66.06-94.77-18.84-10.46-40.53-16.43-63.61-16.43-72.45 0-131.18 58.73-131.18 131.18s58.73 131.18 131.18 131.18c23.08 0 44.76-5.97 63.61-16.43a131.15 131.15 0 0017.18-11.39c30.49-23.86 50.15-60.93 50.39-102.59v-1.36c-.04-6.59-.54-13.06-1.51-19.39zm-66.06 22.19c-1.17 34.13-29.19 61.45-63.61 61.45-35.16 0-63.66-28.5-63.66-63.66s28.5-63.66 63.66-63.66c34.42 0 62.44 27.32 63.61 61.45l.06 2.21-.06 2.21z" fill="#cc191d"/><linearGradient id="b" gradientUnits="userSpaceOnUse" x1="346.855" y1="255.398" x2="468.088" y2="255.398"><stop offset="0" stop-opacity="0"/><stop offset="1" stop-opacity=".3"/></linearGradient><path d="M417.7 293.36c30.49-23.86 50.15-60.93 50.39-102.59V190h-67.51c0 .74-.03 1.48-.06 2.21-1.05 30.78-23.94 56.01-53.67 60.67v67.92c19.36-1.45 37.56-7.1 53.67-16.05 6.04-3.35 11.78-7.16 17.18-11.39z" fill="url(#b)"/><path d="M471.26 170.02c-6.24-40.83-35.93-75.46-70.68-94.77v112.54c.03.74-.06 2.21-.06 2.21s.08 1.48.06 2.21v53.06c0 18.25 11.06 34.99 21.79 48.09 12.26 14.96 30.13 25.14 50.39 27.36V189.41c-.03-6.59-.53-13.06-1.5-19.39z" fill="#cc191d"/><path d="M534.96 84.58v85.04h-34.35V20.9h26.81l69.33 87.35V20.9h34.35v148.72h-27.65l-68.49-85.04zm162.34 87.14c-9.36 0-17.7-1.54-25.03-4.61s-13.51-7.22-18.54-12.46-8.83-11.31-11.41-18.22c-2.59-6.91-3.88-14.14-3.88-21.68s1.29-14.77 3.88-21.68c2.58-6.91 6.39-12.99 11.41-18.22 5.03-5.24 11.21-9.43 18.54-12.57s15.67-4.71 25.03-4.71c9.35 0 17.66 1.57 24.93 4.71 7.26 3.14 13.41 7.33 18.43 12.57 5.03 5.24 8.87 11.31 11.52 18.22s3.98 14.14 3.98 21.68-1.29 14.77-3.88 21.68-6.39 12.99-11.42 18.22c-5.03 5.24-11.21 9.39-18.54 12.46-7.32 3.07-15.66 4.61-25.02 4.61zm-24.51-56.98c0 8.66 2.3 15.61 6.91 20.84s10.47 7.85 17.59 7.85c3.49 0 6.7-.7 9.64-2.09 2.93-1.39 5.48-3.35 7.65-5.87 2.16-2.51 3.88-5.55 5.13-9.11 1.26-3.56 1.88-7.44 1.88-11.62 0-8.66-2.3-15.61-6.91-20.84-4.61-5.24-10.4-7.86-17.39-7.86-3.49 0-6.74.7-9.74 2.1A22.77 22.77 0 00679.8 94c-2.17 2.51-3.88 5.55-5.13 9.11-1.25 3.57-1.88 7.44-1.88 11.63zm122.75 56.98c-11.31 0-19.87-3.52-25.66-10.58-5.79-7.05-8.69-17.42-8.69-31.11V59.65h33.51v63.05c0 6.7 1.32 11.83 3.98 15.39 2.65 3.56 6.42 5.34 11.31 5.34 4.47 0 8.8-1.18 12.99-3.56 4.19-2.37 7.89-6.49 11.1-12.36V59.65h33.52v72.27c0 3.35.52 5.69 1.57 7.02s2.9 2.13 5.55 2.41v28.28c-3.22.7-5.94 1.15-8.17 1.36s-4.26.31-6.08.31c-12.01 0-18.85-4.68-20.53-14.03l-.63-6.71c-5.03 7.26-11.28 12.6-18.75 16.02-7.46 3.42-15.81 5.14-25.02 5.14zm130.92 0c-9.36 0-18.57-1.5-27.65-4.5s-16.76-7.36-23.04-13.09l11.94-20.52c6.7 4.61 13.23 8.17 19.59 10.68 6.35 2.51 12.46 3.77 18.33 3.77 4.33 0 7.68-.77 10.06-2.3 2.37-1.53 3.56-3.77 3.56-6.7s-1.5-5.27-4.5-7.02c-3-1.74-8.27-3.59-15.82-5.55-7.4-2.1-13.65-4.12-18.75-6.07-5.1-1.96-9.25-4.12-12.46-6.5-3.21-2.37-5.52-5.09-6.91-8.17-1.4-3.07-2.1-6.7-2.1-10.89 0-5.58 1.12-10.68 3.35-15.29s5.3-8.52 9.22-11.73c3.91-3.21 8.55-5.72 13.93-7.54 5.37-1.81 11.21-2.72 17.49-2.72 8.24 0 15.95 1.12 23.15 3.35 7.19 2.24 14.14 6.28 20.84 12.15L953.7 93.19c-6.28-4.33-11.87-7.47-16.76-9.43-4.89-1.95-9.64-2.93-14.24-2.93-3.63 0-6.7.73-9.22 2.2-2.51 1.46-3.77 3.8-3.77 7.01 0 3.08 1.36 5.38 4.08 6.91 2.72 1.54 7.78 3.22 15.19 5.03 7.82 2.1 14.42 4.19 19.8 6.28 5.37 2.1 9.74 4.44 13.09 7.02s5.79 5.55 7.33 8.9 2.3 7.33 2.3 11.94c0 10.89-4.05 19.55-12.15 25.97-8.11 6.42-19.07 9.63-32.89 9.63z" fill="#3c3c3b"/><g fill="#cc191d"><path d="M553.59 320.91c-11.42 0-22.68-1.83-33.76-5.5-11.08-3.66-20.46-8.99-28.13-15.99l14.58-25.06c8.18 5.62 16.15 9.97 23.91 13.04s15.22 4.61 22.38 4.61c5.28 0 9.37-.94 12.28-2.81 2.9-1.87 4.35-4.6 4.35-8.18s-1.83-6.43-5.5-8.57c-3.67-2.13-10.1-4.39-19.31-6.78-9.04-2.56-16.67-5.02-22.89-7.42-6.23-2.38-11.29-5.03-15.22-7.93-3.92-2.9-6.74-6.22-8.44-9.98-1.71-3.75-2.56-8.18-2.56-13.3 0-6.81 1.36-13.04 4.09-18.67 2.73-5.62 6.48-10.4 11.25-14.32s10.44-6.99 17.01-9.21c6.56-2.21 13.68-3.32 21.35-3.32 10.06 0 19.47 1.37 28.26 4.09 8.78 2.73 17.26 7.67 25.44 14.83l-15.85 24.55c-7.67-5.28-14.49-9.12-20.46-11.51-5.97-2.38-11.77-3.58-17.39-3.58-4.44 0-8.18.9-11.25 2.69s-4.61 4.64-4.61 8.57c0 3.75 1.66 6.57 4.99 8.44 3.32 1.88 9.5 3.93 18.54 6.14 9.55 2.56 17.6 5.11 24.16 7.67s11.89 5.41 15.98 8.57 7.07 6.78 8.95 10.87c1.87 4.09 2.81 8.95 2.81 14.57 0 13.3-4.94 23.87-14.83 31.71-9.87 7.86-23.25 11.78-40.13 11.78zm114.82 0c-11.42 0-22.68-1.83-33.76-5.5-11.08-3.66-20.46-8.99-28.13-15.99l14.58-25.06c8.18 5.62 16.15 9.97 23.91 13.04s15.22 4.61 22.38 4.61c5.28 0 9.37-.94 12.28-2.81 2.9-1.87 4.35-4.6 4.35-8.18s-1.83-6.43-5.5-8.57c-3.67-2.13-10.1-4.39-19.31-6.78-9.04-2.56-16.67-5.02-22.89-7.42-6.23-2.38-11.29-5.03-15.22-7.93-3.92-2.9-6.74-6.22-8.44-9.98-1.71-3.75-2.56-8.18-2.56-13.3 0-6.81 1.36-13.04 4.09-18.67 2.73-5.62 6.48-10.4 11.25-14.32s10.44-6.99 17.01-9.21c6.56-2.21 13.68-3.32 21.35-3.32 10.06 0 19.47 1.37 28.26 4.09 8.78 2.73 17.26 7.67 25.44 14.83l-15.85 24.55c-7.67-5.28-14.49-9.12-20.46-11.51-5.97-2.38-11.77-3.58-17.39-3.58-4.44 0-8.18.9-11.25 2.69s-4.61 4.64-4.61 8.57c0 3.75 1.66 6.57 4.99 8.44 3.32 1.88 9.5 3.93 18.54 6.14 9.55 2.56 17.6 5.11 24.16 7.67s11.89 5.41 15.98 8.57 7.07 6.78 8.95 10.87c1.87 4.09 2.81 8.95 2.81 14.57 0 13.3-4.95 23.87-14.83 31.71-9.87 7.86-23.25 11.78-40.13 11.78zm102.55 0c-13.81 0-24.25-4.3-31.33-12.91s-10.61-21.27-10.61-37.98V184.1h40.91v76.98c0 8.18 1.62 14.45 4.86 18.8s7.84 6.52 13.81 6.52c5.45 0 10.74-1.45 15.85-4.35s9.63-7.93 13.55-15.09V184.1h40.92v88.23c0 4.1.64 6.95 1.92 8.57s3.54 2.6 6.77 2.94v34.52c-3.92.85-7.25 1.41-9.97 1.66-2.73.26-5.2.38-7.42.38-14.66 0-23.02-5.71-25.06-17.13l-.77-8.19c-6.14 8.87-13.77 15.39-22.89 19.57-9.11 4.17-19.29 6.26-30.54 6.26zm192.05-101.78c-9.89.17-18.84 1.79-26.85 4.86s-13.81 7.67-17.39 13.81v80.56h-40.91V184.09h37.59v27.11c4.6-9.04 10.53-16.11 17.77-21.23 7.25-5.11 14.96-7.76 23.14-7.93h4.09c.85 0 1.7.09 2.56.25v36.84z"/><path d="M1024.64 320.91c-11.42 0-21.61-1.88-30.56-5.63s-16.49-8.82-22.63-15.21-10.79-13.81-13.94-22.25c-3.16-8.44-4.73-17.26-4.73-26.47s1.57-18.03 4.73-26.47c3.15-8.44 7.8-15.85 13.94-22.25s13.68-11.51 22.63-15.34c8.95-3.84 19.14-5.76 30.56-5.76s21.56 1.92 30.43 5.76c8.86 3.83 16.37 8.95 22.5 15.34 6.14 6.39 10.82 13.81 14.07 22.25 3.23 8.44 4.86 17.26 4.86 26.47s-1.58 18.03-4.73 26.47c-3.16 8.44-7.8 15.86-13.94 22.25s-13.68 11.47-22.63 15.21c-8.95 3.75-19.14 5.63-30.56 5.63zm-29.92-69.56c0 10.57 2.81 19.05 8.44 25.45 5.62 6.39 12.78 9.59 21.48 9.59 4.26 0 8.18-.85 11.76-2.56 3.58-1.7 6.69-4.09 9.33-7.16s4.73-6.77 6.27-11.12c1.53-4.35 2.3-9.08 2.3-14.19 0-10.57-2.81-19.05-8.44-25.44-5.62-6.39-12.7-9.59-21.22-9.59-4.26 0-8.23.85-11.89 2.56-3.67 1.7-6.82 4.09-9.46 7.16s-4.73 6.78-6.27 11.13c-1.53 4.32-2.3 9.05-2.3 14.17zm238.59 67h-40.92v-75.44c0-8.86-1.66-15.3-4.99-19.3-3.32-4-7.72-6.01-13.17-6.01-2.9 0-5.8.6-8.7 1.79s-5.71 2.86-8.44 4.99-5.16 4.64-7.29 7.54-3.8 6.06-4.99 9.46v76.98h-40.91V184.09h36.82v22.5c4.94-8.01 11.93-14.19 20.97-18.54s19.44-6.52 31.2-6.52c8.7 0 15.68 1.58 20.97 4.73 5.28 3.16 9.38 7.25 12.28 12.28s4.82 10.53 5.76 16.49c.93 5.97 1.41 11.76 1.41 17.39v85.93zm67.26 2.56c-11.42 0-22.67-1.83-33.76-5.5-11.08-3.66-20.46-8.99-28.13-15.99l14.58-25.06c8.18 5.62 16.15 9.97 23.91 13.04s15.21 4.61 22.38 4.61c5.28 0 9.37-.94 12.27-2.81s4.35-4.6 4.35-8.18-1.83-6.43-5.5-8.57c-3.67-2.13-10.1-4.39-19.31-6.78-9.04-2.56-16.66-5.02-22.88-7.42-6.23-2.38-11.3-5.03-15.21-7.93-3.93-2.9-6.74-6.22-8.44-9.98-1.71-3.75-2.56-8.18-2.56-13.3 0-6.81 1.36-13.04 4.09-18.67 2.73-5.62 6.47-10.4 11.25-14.32s10.45-6.99 17.01-9.21c6.56-2.21 13.68-3.32 21.36-3.32 10.06 0 19.47 1.37 28.26 4.09 8.77 2.73 17.26 7.67 25.44 14.83l-15.86 24.55c-7.67-5.28-14.49-9.12-20.46-11.51-5.97-2.38-11.76-3.58-17.38-3.58-4.44 0-8.18.9-11.26 2.69-3.07 1.79-4.6 4.64-4.6 8.57 0 3.75 1.66 6.57 4.98 8.44 3.33 1.88 9.51 3.93 18.54 6.14 9.55 2.56 17.6 5.11 24.17 7.67 6.56 2.56 11.89 5.41 15.98 8.57s7.07 6.78 8.95 10.87c1.87 4.09 2.81 8.95 2.81 14.57 0 13.3-4.95 23.87-14.83 31.71-9.89 7.86-23.27 11.78-40.15 11.78z"/></g></svg>